<mxfile host="Electron" agent="Mozilla/5.0 (Windows NT 10.0; Win64; x64) AppleWebKit/537.36 (KHTML, like Gecko) draw.io/25.0.2 Chrome/128.0.6613.186 Electron/32.2.5 Safari/537.36" version="25.0.2">
  <diagram id="C5RBs43oDa-KdzZeNtuy" name="Page-1">
    <mxGraphModel dx="1909" dy="1129" grid="1" gridSize="10" guides="1" tooltips="1" connect="1" arrows="1" fold="1" page="1" pageScale="1" pageWidth="827" pageHeight="1169" math="0" shadow="0">
      <root>
        <mxCell id="WIyWlLk6GJQsqaUBKTNV-0" />
        <mxCell id="WIyWlLk6GJQsqaUBKTNV-1" parent="WIyWlLk6GJQsqaUBKTNV-0" />
        <mxCell id="oUVO3u7PdFD1QSmXiJ4v-19" style="edgeStyle=orthogonalEdgeStyle;rounded=0;orthogonalLoop=1;jettySize=auto;html=1;entryX=0.5;entryY=0;entryDx=0;entryDy=0;" edge="1" parent="WIyWlLk6GJQsqaUBKTNV-1" source="oUVO3u7PdFD1QSmXiJ4v-0" target="oUVO3u7PdFD1QSmXiJ4v-2">
          <mxGeometry relative="1" as="geometry" />
        </mxCell>
        <mxCell id="oUVO3u7PdFD1QSmXiJ4v-0" value="" style="rounded=1;whiteSpace=wrap;html=1;arcSize=50;" vertex="1" parent="WIyWlLk6GJQsqaUBKTNV-1">
          <mxGeometry x="364" y="60" width="100" height="20" as="geometry" />
        </mxCell>
        <mxCell id="oUVO3u7PdFD1QSmXiJ4v-1" value="" style="rounded=1;whiteSpace=wrap;html=1;arcSize=50;" vertex="1" parent="WIyWlLk6GJQsqaUBKTNV-1">
          <mxGeometry x="364" y="820" width="100" height="20" as="geometry" />
        </mxCell>
        <mxCell id="oUVO3u7PdFD1QSmXiJ4v-2" value="авторизация" style="rounded=0;whiteSpace=wrap;html=1;" vertex="1" parent="WIyWlLk6GJQsqaUBKTNV-1">
          <mxGeometry x="356" y="120" width="116" height="30" as="geometry" />
        </mxCell>
        <mxCell id="oUVO3u7PdFD1QSmXiJ4v-6" style="edgeStyle=orthogonalEdgeStyle;rounded=0;orthogonalLoop=1;jettySize=auto;html=1;fillColor=#f8cecc;strokeColor=#b85450;entryX=1.014;entryY=0.517;entryDx=0;entryDy=0;entryPerimeter=0;" edge="1" parent="WIyWlLk6GJQsqaUBKTNV-1" source="oUVO3u7PdFD1QSmXiJ4v-3" target="oUVO3u7PdFD1QSmXiJ4v-4">
          <mxGeometry relative="1" as="geometry">
            <mxPoint x="330" y="210" as="targetPoint" />
          </mxGeometry>
        </mxCell>
        <mxCell id="oUVO3u7PdFD1QSmXiJ4v-8" style="edgeStyle=orthogonalEdgeStyle;rounded=0;orthogonalLoop=1;jettySize=auto;html=1;fillColor=#d5e8d4;strokeColor=#82b366;" edge="1" parent="WIyWlLk6GJQsqaUBKTNV-1" source="oUVO3u7PdFD1QSmXiJ4v-3">
          <mxGeometry relative="1" as="geometry">
            <mxPoint x="414" y="280" as="targetPoint" />
          </mxGeometry>
        </mxCell>
        <mxCell id="oUVO3u7PdFD1QSmXiJ4v-3" value="успешно?" style="rhombus;whiteSpace=wrap;html=1;" vertex="1" parent="WIyWlLk6GJQsqaUBKTNV-1">
          <mxGeometry x="374" y="170" width="80" height="80" as="geometry" />
        </mxCell>
        <mxCell id="oUVO3u7PdFD1QSmXiJ4v-7" style="edgeStyle=orthogonalEdgeStyle;rounded=0;orthogonalLoop=1;jettySize=auto;html=1;entryX=0;entryY=0.5;entryDx=0;entryDy=0;" edge="1" parent="WIyWlLk6GJQsqaUBKTNV-1" source="oUVO3u7PdFD1QSmXiJ4v-4" target="oUVO3u7PdFD1QSmXiJ4v-2">
          <mxGeometry relative="1" as="geometry">
            <Array as="points">
              <mxPoint x="268" y="135" />
            </Array>
          </mxGeometry>
        </mxCell>
        <mxCell id="oUVO3u7PdFD1QSmXiJ4v-4" value="сообдение об ошибке" style="rounded=0;whiteSpace=wrap;html=1;" vertex="1" parent="WIyWlLk6GJQsqaUBKTNV-1">
          <mxGeometry x="210" y="195" width="116" height="30" as="geometry" />
        </mxCell>
        <mxCell id="oUVO3u7PdFD1QSmXiJ4v-12" style="edgeStyle=orthogonalEdgeStyle;rounded=0;orthogonalLoop=1;jettySize=auto;html=1;entryX=0.5;entryY=0;entryDx=0;entryDy=0;" edge="1" parent="WIyWlLk6GJQsqaUBKTNV-1" target="oUVO3u7PdFD1QSmXiJ4v-11">
          <mxGeometry relative="1" as="geometry">
            <mxPoint x="414" y="310" as="sourcePoint" />
          </mxGeometry>
        </mxCell>
        <mxCell id="oUVO3u7PdFD1QSmXiJ4v-15" style="edgeStyle=orthogonalEdgeStyle;rounded=0;orthogonalLoop=1;jettySize=auto;html=1;entryX=0.5;entryY=0;entryDx=0;entryDy=0;" edge="1" parent="WIyWlLk6GJQsqaUBKTNV-1" source="oUVO3u7PdFD1QSmXiJ4v-11" target="oUVO3u7PdFD1QSmXiJ4v-14">
          <mxGeometry relative="1" as="geometry" />
        </mxCell>
        <mxCell id="oUVO3u7PdFD1QSmXiJ4v-11" value="пользователь формирует запрос" style="shape=document;whiteSpace=wrap;html=1;boundedLbl=1;" vertex="1" parent="WIyWlLk6GJQsqaUBKTNV-1">
          <mxGeometry x="354" y="360" width="120" height="80" as="geometry" />
        </mxCell>
        <mxCell id="oUVO3u7PdFD1QSmXiJ4v-13" value="пользователь переходит на страницу с AI" style="rounded=0;whiteSpace=wrap;html=1;" vertex="1" parent="WIyWlLk6GJQsqaUBKTNV-1">
          <mxGeometry x="342" y="280" width="144" height="30" as="geometry" />
        </mxCell>
        <mxCell id="oUVO3u7PdFD1QSmXiJ4v-17" style="edgeStyle=orthogonalEdgeStyle;rounded=0;orthogonalLoop=1;jettySize=auto;html=1;entryX=0.5;entryY=0;entryDx=0;entryDy=0;" edge="1" parent="WIyWlLk6GJQsqaUBKTNV-1" source="oUVO3u7PdFD1QSmXiJ4v-14" target="oUVO3u7PdFD1QSmXiJ4v-16">
          <mxGeometry relative="1" as="geometry" />
        </mxCell>
        <mxCell id="oUVO3u7PdFD1QSmXiJ4v-14" value="отправлет запрос" style="rounded=0;whiteSpace=wrap;html=1;" vertex="1" parent="WIyWlLk6GJQsqaUBKTNV-1">
          <mxGeometry x="342" y="480" width="144" height="30" as="geometry" />
        </mxCell>
        <mxCell id="oUVO3u7PdFD1QSmXiJ4v-18" style="edgeStyle=orthogonalEdgeStyle;rounded=0;orthogonalLoop=1;jettySize=auto;html=1;entryX=0.5;entryY=0;entryDx=0;entryDy=0;fillColor=#d5e8d4;strokeColor=#82b366;" edge="1" parent="WIyWlLk6GJQsqaUBKTNV-1" source="oUVO3u7PdFD1QSmXiJ4v-21" target="oUVO3u7PdFD1QSmXiJ4v-1">
          <mxGeometry relative="1" as="geometry" />
        </mxCell>
        <mxCell id="oUVO3u7PdFD1QSmXiJ4v-16" value="анализирует ответ" style="rounded=0;whiteSpace=wrap;html=1;" vertex="1" parent="WIyWlLk6GJQsqaUBKTNV-1">
          <mxGeometry x="342" y="585" width="144" height="30" as="geometry" />
        </mxCell>
        <mxCell id="oUVO3u7PdFD1QSmXiJ4v-22" value="" style="edgeStyle=orthogonalEdgeStyle;rounded=0;orthogonalLoop=1;jettySize=auto;html=1;entryX=0.5;entryY=0;entryDx=0;entryDy=0;" edge="1" parent="WIyWlLk6GJQsqaUBKTNV-1" source="oUVO3u7PdFD1QSmXiJ4v-16" target="oUVO3u7PdFD1QSmXiJ4v-21">
          <mxGeometry relative="1" as="geometry">
            <mxPoint x="414" y="615" as="sourcePoint" />
            <mxPoint x="414" y="820" as="targetPoint" />
          </mxGeometry>
        </mxCell>
        <mxCell id="oUVO3u7PdFD1QSmXiJ4v-23" style="edgeStyle=orthogonalEdgeStyle;rounded=0;orthogonalLoop=1;jettySize=auto;html=1;entryX=0;entryY=0.5;entryDx=0;entryDy=0;fillColor=#f8cecc;strokeColor=#b85450;" edge="1" parent="WIyWlLk6GJQsqaUBKTNV-1" source="oUVO3u7PdFD1QSmXiJ4v-21" target="oUVO3u7PdFD1QSmXiJ4v-11">
          <mxGeometry relative="1" as="geometry">
            <Array as="points">
              <mxPoint x="260" y="700" />
              <mxPoint x="260" y="400" />
            </Array>
          </mxGeometry>
        </mxCell>
        <mxCell id="oUVO3u7PdFD1QSmXiJ4v-21" value="ответ устроил?" style="rhombus;whiteSpace=wrap;html=1;" vertex="1" parent="WIyWlLk6GJQsqaUBKTNV-1">
          <mxGeometry x="374" y="660" width="80" height="80" as="geometry" />
        </mxCell>
      </root>
    </mxGraphModel>
  </diagram>
</mxfile>
